Coordinates
version=1
nRows=8
nColumns=63
inDegrees=yes

Units are S.I. units (second, meters, Newtons, ...)
If the header above contains a line with 'inDegrees', this indicates whether rotational values are in degrees (yes) or radians (no).

endheader
time	pelvis_tilt	pelvis_list	pelvis_rotation	pelvis_tx	pelvis_ty	pelvis_tz	hip_flexion_r	hip_adduction_r	hip_rotation_r	knee_angle_r	knee_angle_r_beta	ankle_angle_r	subtalar_angle_r	mtp_angle_r	hip_flexion_l	hip_adduction_l	hip_rotation_l	knee_angle_l	knee_angle_l_beta	ankle_angle_l	subtalar_angle_l	mtp_angle_l	L5_S1_Flex_Ext	L5_S1_Lat_Bending	L5_S1_axial_rotation	L4_L5_Flex_Ext	L4_L5_Lat_Bending	L4_L5_axial_rotation	L3_L4_Flex_Ext	L3_L4_Lat_Bending	L3_L4_axial_rotation	L2_L3_Flex_Ext	L2_L3_Lat_Bending	L2_L3_axial_rotation	L1_L2_Flex_Ext	L1_L2_Lat_Bending	L1_L2_axial_rotation	L1_T12_Flex_Ext	L1_T12_Lat_Bending	L1_T12_axial_rotation	Abs_r3	Abs_r2	Abs_r1	Abs_t1	Abs_t2	neck_flexion	neck_bending	neck_rotation	arm_flex_r	arm_add_r	arm_rot_r	elbow_flex_r	pro_sup_r	wrist_flex_r	wrist_dev_r	arm_flex_l	arm_add_l	arm_rot_l	elbow_flex_l	pro_sup_l	wrist_flex_l	wrist_dev_l
      3.75000000	    -51.23924786	     -5.34711041	     -0.90332390	     -0.36246784	      1.11789167	      0.03973965	    103.96808906	     -5.68318554	     -1.58392038	    106.51879596	      1.85910370	      4.46143754	      0.94433937	      0.00000000	     94.59600340	     -5.83319477	      5.44332441	     56.11726184	      0.97943099	     18.60728946	     12.88656151	      0.00000000	     -0.07548189	      0.71526434	      0.46326814	     -0.14017742	      0.95130157	      0.49222240	     -0.12400920	      1.73909372	      0.49222240	     -0.08626826	      1.73909372	      0.40535962	     -0.07009249	      1.45856705	      0.37640536	     -0.04313035	      1.10794446	      0.34745110	     -0.53915961	      8.09121328	      2.57655841	      0.00000000	      0.00000000	     -0.00000000	      0.00000000	      0.00000000	     72.79827003	    -15.78642497	     24.47018169	     36.73936617	     29.50493955	      0.00000000	      5.00004568	     70.19644042	     -9.59659695	     16.26639854	     36.83294987	     52.93831136	      0.00000000	      5.00004568
      3.75800000	    -51.19747117	     -5.41469135	     -1.15898492	     -0.36218531	      1.11742042	      0.04005169	    105.37130500	     -5.48519284	     -1.09506182	    108.38006663	      1.89158901	      6.47875272	      3.09237852	      0.00000000	     93.02263553	     -6.24861336	      5.11494423	     54.20495103	      0.94605487	     17.63160011	     12.73226004	      0.00000000	     -0.07492301	      0.73213240	      0.50030147	     -0.13913951	      0.97373609	      0.53157031	     -0.12309101	      1.78010671	      0.53157031	     -0.08562950	      1.78010671	      0.43776379	     -0.06957350	      1.49296439	      0.40649494	     -0.04281101	      1.13407308	      0.37522610	     -0.53516754	      8.28202811	      2.78252668	      0.00000000	      0.00000000	     -0.00000000	      0.00000000	      0.00000000	     72.75805167	    -15.79514487	     24.55141170	     36.92457669	     29.49569364	      0.00000000	      5.00004269	     69.98067489	     -9.54766505	     15.83143695	     37.00108837	     52.88359254	      0.00000000	      5.00004269
      3.76700000	    -51.17211000	     -5.72413487	     -1.50817036	     -0.36191739	      1.11712204	      0.04047966	    106.74833907	     -5.23865226	     -1.19838913	    109.96872429	      1.91931631	      7.38835189	      3.04667564	      0.00000000	     91.56135907	     -6.80007747	      4.93024193	     52.47503846	      0.91586220	     16.77879962	     12.58868928	      0.00000000	     -0.07541626	      0.78027642	      0.56385702	     -0.14005554	      1.03776764	      0.59909808	     -0.12390138	      1.89716408	      0.59909808	     -0.08619325	      1.89716408	      0.49337489	     -0.07003154	      1.59113967	      0.45813383	     -0.04309285	      1.20864817	      0.42289277	     -0.53869083	      8.82664289	      3.13600359	      0.00000000	      0.00000000	     -0.00000000	      0.00000000	      0.00000000	     72.79173815	    -15.86686288	     24.64803136	     37.07043920	     29.54926618	      0.00000000	      5.00004219	     69.77610127	     -9.51062844	     15.76092390	     37.14334858	     52.85291137	      0.00000000	      5.00004219
      3.77500000	    -51.13779080	     -5.66294937	     -1.47706036	     -0.36165297	      1.11673926	      0.04076853	    108.13243318	     -5.25256998	     -0.76856414	    111.51405590	      1.94628744	      9.54712697	      3.77048248	      0.00000000	     90.08997287	     -7.04196148	      4.09771885	     50.90918293	      0.88853286	     15.89046759	     12.42769252	      0.00000000	     -0.07717486	      0.77557007	      0.54691563	     -0.14332144	      1.03150819	      0.58109786	     -0.12679058	      1.88572106	      0.58109786	     -0.08820315	      1.88572106	      0.47855118	     -0.07166458	      1.58154248	      0.44436895	     -0.04409772	      1.20135803	      0.41018672	     -0.55125233	      8.77340370	      3.04178068	      0.00000000	      0.00000000	     -0.00000000	      0.00000000	      0.00000000	     72.75246786	    -15.93290418	     25.06836320	     37.36700380	     29.61959538	      0.00000000	      5.00004101	     69.53445888	     -9.55108142	     15.24317355	     37.49916147	     52.76760930	      0.00000000	      5.00004101
      3.78300000	    -51.13229512	     -5.90721364	     -1.66487492	     -0.36139373	      1.11649372	      0.04122999	    109.44226812	     -5.11845692	     -0.72267159	    112.72217455	      1.96737309	     11.31684040	      4.60334548	      0.00000000	     88.80965094	     -7.52737596	      3.54753316	     49.64939199	      0.86654536	     15.14642885	     12.15446657	      0.00000000	     -0.07782820	      0.81210583	      0.57240300	     -0.14453475	      1.08010075	      0.60817819	     -0.12786395	      1.97455412	      0.60817819	     -0.08894985	      1.97455412	      0.50085263	     -0.07227127	      1.65604621	      0.46507744	     -0.04447103	      1.25795193	      0.42930225	     -0.55591905	      9.18670358	      3.18353377	      0.00000000	      0.00000000	     -0.00000000	      0.00000000	      0.00000000	     72.79684191	    -15.96922163	     25.38841718	     37.55700159	     29.67575296	      0.00000000	      5.00003982	     69.24180429	     -9.51125827	     14.74288975	     37.83575349	     52.68228622	      0.00000000	      5.00003982
      3.79200000	    -51.14634415	     -6.23999175	     -1.87035791	     -0.36113297	      1.11636394	      0.04158732	    110.70538405	     -5.03292771	     -0.78589136	    113.65661482	      1.98368215	     12.93491683	      5.82781721	      0.00000000	     87.66517034	     -8.01580693	      3.15517037	     48.66156768	      0.84930458	     14.53814118	     11.85623609	      0.00000000	     -0.07841073	      0.86229008	      0.60076662	     -0.14561656	      1.14684580	      0.63831453	     -0.12882098	      2.09657209	      0.63831453	     -0.08961562	      2.09657209	      0.52567079	     -0.07281220	      1.75838193	      0.48812288	     -0.04480389	      1.33568733	      0.45057496	     -0.56007998	      9.75439781	      3.34128371	      0.00000000	      0.00000000	     -0.00000000	      0.00000000	      0.00000000	     72.92548813	    -16.05596207	     25.85442480	     37.66771991	     29.72034924	      0.00000000	      5.00003762	     68.87194909	     -9.38709492	     13.83854179	     38.14922066	     52.54578188	      0.00000000	      5.00003762
      3.80000000	    -51.17756277	     -6.56651275	     -2.04671150	     -0.36090261	      1.11629676	      0.04207714	    111.93148708	     -4.96812280	     -1.08280724	    114.32731175	      1.99538801	     14.13278632	      5.70155791	      0.00000000	     86.66643393	     -8.52506920	      2.72186919	     47.98549673	      0.83750491	     14.03244600	     11.70427120	      0.00000000	     -0.07901300	      0.90895121	      0.62317156	     -0.14673503	      1.20890511	      0.66211978	     -0.12981045	      2.21002397	      0.66211978	     -0.09030395	      2.21002397	      0.54527511	     -0.07337147	      1.85353330	      0.50632689	     -0.04514803	      1.40796542	      0.46737867	     -0.56438193	     10.28223785	      3.46589325	      0.00000000	      0.00000000	     -0.00000000	      0.00000000	      0.00000000	     72.97965128	    -16.10439968	     26.05091218	     37.89022043	     29.75404259	      0.00000000	      5.00003679	     68.59367970	     -9.41379708	     13.52708698	     38.46542384	     52.49071110	      0.00000000	      5.00003679
      3.80800000	    -51.19322359	     -6.83020391	     -2.13579589	     -0.36070975	      1.11612232	      0.04252879	    113.19628077	     -4.99770670	     -1.32054718	    114.80788564	      2.00377561	     14.61151106	      5.61348518	      0.00000000	     85.83454574	     -8.86576717	      2.62271784	     47.76107283	      0.83358798	     13.75660680	     11.59566737	      0.00000000	     -0.07860914	      0.94499938	      0.63164446	     -0.14598503	      1.25684918	      0.67112224	     -0.12914696	      2.29767150	      0.67112224	     -0.08984239	      2.29767150	      0.55268890	     -0.07299645	      1.92704274	      0.51321112	     -0.04491726	      1.46380405	      0.47373335	     -0.56149722	     10.69002203	      3.51301700	      0.00000000	      0.00000000	     -0.00000000	      0.00000000	      0.00000000	     72.98967430	    -16.10096664	     26.08882156	     37.99968096	     29.78233758	      0.00000000	      5.00003657	     68.47113870	     -9.45544904	     13.45206261	     38.52299098	     52.46874339	      0.00000000	      5.00003657
